{"title":"The Hunger Games BRRip 720p x264 Feel-Free","uid":7507524,"size":3620624024,"categoryP":"video","categoryS":"hd___movies","magnet":"?xt=urn:btih:d3fb077409b77b7a88299e1e3fd7299713b1b18e&amp;dn=The+Hunger+Games+BRRip+720p+x264+Feel-Free&amp;tr=udp%3A%2F%2Ftracker.openbittorrent.com%3A80&amp;tr=udp%3A%2F%2Fopen.demonii.com%3A1337&amp;tr=udp%3A%2F%2Ftracker.coppersurfer.tk%3A6969&amp;tr=udp%3A%2F%2Fexodus.desync.com%3A6969","seeders":1,"leechers":0,"uploader":"hiest","files":-1,"time":1344224643,"description":"8888888888                888      8888888888                       \n888                       888      888                              \n888                       888      888                              \n8888888  .d88b.   .d88b.  888      8888888 888d888 .d88b.   .d88b.  \n888     d8P  Y8b d8P  Y8b 888      888     888P&quot;  d8P  Y8b d8P  Y8b \n888     88888888 88888888 888      888     888    88888888 88888888 \n888     Y8b.     Y8b.     888      888     888    Y8b.     Y8b.     \n888      &quot;Y8888   &quot;Y8888  888      888     888     &quot;Y8888   &quot;Y8888  \n\n\n################Credits To Feel Free, Pitic &amp; Tony################\n\n\nGenre:Action | Adventure | Sci-Fi\nLanguage:English\nIMDb: &lt;a href=&quot;\nhttp://www.imdb.com/title/tt1392170&quot; rel=&quot;nofollow&quot; target=&quot;_NEW&quot;&gt;\nhttp://www.imdb.com/title/tt1392170&lt;/a&gt;\nSource:BluRay.x264.DTS-HDChina Thanks\nEncoder:Tony\n\nFormat : MPEG-4\nFormat profile : Base Media\nCodec ID : isom\nFile size : 3.37 GiB\nDuration : 2h 22mn\nOverall bit rate mode : Variable\nOverall bit rate : 3 382 Kbps\n\nVideo\nID : 1\nFormat : AVC\nFormat/Info : Advanced Video Codec\nFormat profile : &lt;a class=&quot;__cf_email__&quot; href=&quot;/cdn-cgi/l/email-protection&quot; data-cfemail=&quot;fbb3929c93bbb7cfd5ca&quot;&gt;[email&amp;#160;protected]&lt;/a&gt;&lt;script cf-hash='f9e31' type=&quot;text/javascript&quot;&gt;\n/* &lt;![CDATA[ */!function(){try{var t=&quot;currentScript&quot;in document?document.currentScript:function(){for(var t=document.getElementsByTagName(&quot;script&quot;),e=t.length;e--;)if(t[e].getAttribute(&quot;cf-hash&quot;))return t[e]}();if(t&amp;&amp;t.previousSibling){var e,r,n,i,c=t.previousSibling,a=c.getAttribute(&quot;data-cfemail&quot;);if(a){for(e=&quot;&quot;,r=parseInt(a.substr(0,2),16),n=2;a.length-n;n+=2)i=parseInt(a.substr(n,2),16)^r,e+=String.fromCharCode(i);e=document.createTextNode(e),c.parentNode.replaceChild(e,c)}}}catch(u){}}();/* ]]&gt; */&lt;/script&gt;\nFormat settings, CABAC : Yes\nFormat settings, ReFrames : 3 frames\nCodec ID : avc1\nCodec ID/Info : Advanced Video Coding\nDuration : 2h 22mn\nBit rate : 3 000 Kbps\nMaximum bit rate : 28.3 Mbps\nWidth : 1 280 pixels\nHeight : 528 pixels\nDisplay aspect ratio : 2.40:1\nFrame rate mode : Constant\nFrame rate : 23.976 fps\nColor space : YUV\nChroma subsampling : 4:2:0\nBit depth : 8 bits\nScan type : Progressive\nBits/(Pixel*Frame) : 0.185\nStream size : 2.92 GiB (87%)\nWriting library : x264\n\nAudio\nID : 2\nFormat : AAC\nFormat/Info : Advanced Audio Codec\nFormat profile : LC\nCodec ID : 40\nDuration : 2h 22mn\nBit rate mode : Variable\nBit rate : 444 Kbps\nMaximum bit rate : 553 Kbps\nChannel(s) : 6 channels\nChannel positions : Front: L C R, Side: L R, LFE\nSampling rate : 48.0 KHz\nCompression mode : Lossy\nStream size : 452 MiB (13%)\n\n\nPlot:\nSet in a future where the Capitol selects a boy and girl from the twelve districts to fight to the death on live television, Katniss Everdeen volunteers to take her younger sister's place for latest match.\n\nScreen Shots:\n                                     &lt;a href=&quot;\nhttp://img39.imageshack.us/img39/2001/vlcsnap2012080508h57m02.png&quot; rel=&quot;nofollow&quot; target=&quot;_NEW&quot;&gt;\nhttp://img39.imageshack.us/img39/2001/vlcsnap2012080508h57m02.png&lt;/a&gt;\n &lt;a href=&quot;\nhttp://img821.imageshack.us/img821/1681/vlcsnap2012080508h58m26.png&quot; rel=&quot;nofollow&quot; target=&quot;_NEW&quot;&gt;\nhttp://img821.imageshack.us/img821/1681/vlcsnap2012080508h58m26.png&lt;/a&gt;\n &lt;a href=&quot;\nhttp://img801.imageshack.us/img801/656/vlcsnap2012080508h58m54.png&quot; rel=&quot;nofollow&quot; target=&quot;_NEW&quot;&gt;\nhttp://img801.imageshack.us/img801/656/vlcsnap2012080508h58m54.png&lt;/a&gt;\n &lt;a href=&quot;\nhttp://img259.imageshack.us/img259/1417/vlcsnap2012080508h59m23.png&quot; rel=&quot;nofollow&quot; target=&quot;_NEW&quot;&gt;\nhttp://img259.imageshack.us/img259/1417/vlcsnap2012080508h59m23.png&lt;/a&gt;\n &lt;a href=&quot;\nhttp://img38.imageshack.us/img38/1683/vlcsnap2012080508h59m53.png&quot; rel=&quot;nofollow&quot; target=&quot;_NEW&quot;&gt;\nhttp://img38.imageshack.us/img38/1683/vlcsnap2012080508h59m53.png&lt;/a&gt;\n &lt;a href=&quot;\nhttp://img15.imageshack.us/img15/1082/vlcsnap2012080509h00m03.png&quot; rel=&quot;nofollow&quot; target=&quot;_NEW&quot;&gt;\nhttp://img15.imageshack.us/img15/1082/vlcsnap2012080509h00m03.png&lt;/a&gt;\n\n\n################Credits To Feel Free, Pitic &amp; Tony################\n\n\n8888888888                888      8888888888                       \n888                       888      888                              \n888                       888      888                              \n8888888  .d88b.   .d88b.  888      8888888 888d888 .d88b.   .d88b.  \n888     d8P  Y8b d8P  Y8b 888      888     888P&quot;  d8P  Y8b d8P  Y8b \n888     88888888 88888888 888      888     888    88888888 88888888 \n888     Y8b.     Y8b.     888      888     888    Y8b.     Y8b.     \n888      &quot;Y8888   &quot;Y8888  888      888     888     &quot;Y8888   &quot;Y8888  ","torrent":{"xt":"urn:btih:d3fb077409b77b7a88299e1e3fd7299713b1b18e","amp;dn":"The+Hunger+Games+BRRip+720p+x264+Feel-Free","amp;tr":["udp%3A%2F%2Ftracker.openbittorrent.com%3A80","udp%3A%2F%2Fopen.demonii.com%3A1337","udp%3A%2F%2Ftracker.coppersurfer.tk%3A6969","udp%3A%2F%2Fexodus.desync.com%3A6969"],"infoHash":"d3fb077409b77b7a88299e1e3fd7299713b1b18e","infoHashBuffer":{"type":"Buffer","data":[211,251,7,116,9,183,123,122,136,41,158,30,63,215,41,151,19,177,177,142]},"announce":[],"urlList":[]}}